<svg width="50" height="50" viewBox="0 0 50 50" fill="none" xmlns="http://www.w3.org/2000/svg">
<g clip-path="url(#clip0_1_3670)">
<path d="M19.2955 33.4618C19.4363 34.143 20.1033 34.5815 20.7844 34.4407C21.4656 34.3 21.9041 33.6329 21.7633 32.9518L21.4103 31.2437L23.1777 30.8785C23.8588 30.7377 24.2973 30.0706 24.1566 29.3895C24.0158 28.7084 23.3487 28.2698 22.6676 28.4106L20.9003 28.7759L20.5477 27.0701C20.407 26.389 19.7399 25.9504 19.0588 26.0912C18.3777 26.232 17.9391 26.899 18.0799 27.5802L18.4324 29.2859L16.6659 29.651C15.9848 29.7918 15.5462 30.4588 15.687 31.14C15.8278 31.8211 16.4948 32.2596 17.1759 32.1189L18.9425 31.7538L19.2955 33.4618Z" fill="black"/>
<path d="M29.8425 26.622L29.6747 26.6567C28.9936 26.7975 28.3266 26.3589 28.1858 25.6778C28.045 24.9967 28.4836 24.3296 29.1647 24.1888L29.3325 24.1542C30.0136 24.0134 30.6807 24.4519 30.8214 25.1331C30.9622 25.8142 30.5237 26.4812 29.8425 26.622Z" fill="black"/>
<path d="M33.6812 31.6821L33.8507 31.6471C34.5318 31.5063 34.9703 30.8393 34.8296 30.1581C34.6888 29.477 34.0217 29.0385 33.3406 29.1793L33.1711 29.2143C32.49 29.355 32.0515 30.0221 32.1922 30.7032C32.333 31.3843 33.0001 31.8229 33.6812 31.6821Z" fill="black"/>
<path fill-rule="evenodd" clip-rule="evenodd" d="M21.839 15.9424C9.54787 18.5361 5.91086 22.9738 7.94558 32.8187C9.99496 42.7345 15.1539 45.3343 27.6642 42.7487C40.1728 40.1634 43.8801 35.7312 41.8307 25.8154C39.9057 16.5014 35.2373 13.6433 24.3149 15.4715L24.2159 14.9923C23.6675 12.5135 21.1819 10.9703 18.7344 11.4624L17.0644 11.8076C17.033 11.8059 16.9989 11.805 16.963 11.8041C16.7794 11.7992 16.5482 11.793 16.3747 11.6825C16.1709 11.5514 16.0295 11.349 15.9789 11.1124C15.8336 10.4339 15.1699 10.0033 14.492 10.1434L14.4822 10.1454C13.8021 10.2911 13.3695 10.9621 13.5152 11.6422C13.7074 12.5391 14.2398 13.3057 15.0117 13.8032C15.7829 14.2974 16.6559 14.4378 17.586 14.273L19.2543 13.9282C20.3903 13.6643 21.5061 14.4064 21.7514 15.5188L21.839 15.9424ZM10.4134 32.3086C8.67688 23.9065 11.5284 20.646 22.6222 18.3532C33.7143 16.0607 37.6263 17.9233 39.3629 26.3254C41.0994 34.7276 38.2463 37.9884 27.1541 40.2808C16.0603 42.5737 12.15 40.7108 10.4134 32.3086Z" fill="black"/>
</g>
<defs>
<clipPath id="clip0_1_3670">
<rect width="42" height="42" fill="white" transform="translate(0 8.5008) rotate(-11.6773)"/>
</clipPath>
</defs>
</svg>
